<?xml version="1.0" encoding="UTF-8"?>
<svg version="1.1" xmlns="http://www.w3.org/2000/svg" width="3000" height="2500">
<path d="M0 0 C2.52052199 1.2051943 5.04434024 2.40338908 7.56817627 3.60162354 C19.35455264 9.20048857 31.0424361 14.92473189 42.55072021 21.0748291 C49.01682733 24.52020827 55.54675112 27.84113364 62.06713867 31.18215942 C74.82782832 37.7252108 87.50961328 44.38156561 100.05511475 51.33068848 C103.29288618 53.12317315 106.5348582 54.90796997 109.77728271 56.6920166 C115.32711436 59.74673638 120.87315717 62.80825024 126.41676331 65.87425232 C129.43598594 67.5440343 132.4557813 69.21275039 135.47747803 70.87805176 C147.37294927 77.43546797 159.22555127 84.04547602 170.93743896 90.9263916 C220.21273073 119.86863488 271.25902648 146.52259926 323.26409912 170.24572754 C326.48408268 171.71611399 329.69659557 173.2022271 332.90776062 174.6917572 C419.17992835 214.70075841 508.58256779 249.1805187 709.93743896 297.9263916 C711.06891357 298.10541016 712.20038818 298.28442871 713.3661499 298.46887207 C744.53596221 303.28056294 776.4574719 304.56610863 807.93743896 305.9263916 C808.63351257 305.95668457 809.32958618 305.98697754 810.04675293 306.01818848 C831.89687867 306.95037765 853.75814421 307.02664004 875.62471008 307.04888153 C877.70262997 307.05133573 879.78054252 307.05528735 881.85845947 307.05950928 C908.48904576 307.10583026 935.12986152 306.73348077 961.68743896 304.6138916 C962.92854935 304.51876785 962.92854935 304.51876785 964.19473267 304.42172241 C975.83038723 303.52842398 987.41183813 302.35868476 998.99993896 300.9888916 C1014.32473086 299.18105291 1029.67336082 297.92643784 1045.06243896 296.8013916 C1046.6764006 296.68091965 1046.6764006 296.68091965 1048.32296753 296.55801392 C1056.52405766 295.95039527 1064.72863007 295.4179638 1072.93743896 294.9263916 C1073.66316101 294.88233185 1074.38888306 294.83827209 1075.13659668 294.7928772 C1103.44219411 293.08455318 1131.68323747 292.60678048 1160.03704834 292.66564941 C1165.60987217 292.67712752 1171.18250672 292.67020271 1176.75532436 292.65877151 C1200.22875585 292.61786686 1223.54797931 292.77136199 1246.93743896 294.9263916 C1247.79951965 295.00200317 1248.66160034 295.07761475 1249.54980469 295.15551758 C1254.50029296 295.59294028 1259.43822179 296.10519564 1264.37493896 296.6763916 C1265.09982513 296.75876068 1265.8247113 296.84112976 1266.57156372 296.92599487 C1295.69407054 300.25743227 1324.49417971 304.77844708 1352.93743896 311.9263916 C1354.13449463 312.22239258 1355.33155029 312.51839355 1356.56488037 312.82336426 C1407.88966147 325.67017559 1456.53362886 348.15969314 1495.93743896 383.9263916 C1496.56198975 384.48922852 1497.18654053 385.05206543 1497.83001709 385.63195801 C1510.03266424 396.65501593 1510.03266424 396.65501593 1515.31634521 402.99279785 C1517.2051828 405.24574871 1519.19436493 407.39018478 1521.18743896 409.5513916 C1533.95588969 423.72892433 1545.3668633 439.43122296 1554.93743896 455.9263916 C1555.46869385 456.82720459 1555.46869385 456.82720459 1556.01068115 457.74621582 C1571.22388265 483.80201238 1577.9880093 513.15399131 1580.93743896 542.9263916 C1581.03315186 543.85943115 1581.12886475 544.7924707 1581.22747803 545.75378418 C1582.35200356 558.67071317 1582.1796355 571.65902139 1582.18743896 584.6138916 C1582.18877838 585.92630829 1582.1901178 587.23872498 1582.1914978 588.59091187 C1582.19941168 624.01610481 1581.06909177 659.83089293 1575.93743896 694.9263916 C1575.80788818 695.82744629 1575.6783374 696.72850098 1575.54486084 697.65686035 C1573.88611722 708.76323068 1571.35668796 719.59742438 1568.46087646 730.4420166 C1568.20561471 731.39957698 1568.20561471 731.39957698 1567.94519615 732.37648201 C1563.90925198 747.46072347 1559.3075067 762.36416598 1554.67416382 777.27337646 C1529.7568711 857.50034758 1507.76323034 938.9065358 1500.93743896 1022.9263916 C1500.84317627 1023.96158936 1500.74891357 1024.99678711 1500.65179443 1026.06335449 C1499.54756766 1039.71606177 1499.69152591 1053.42593886 1499.68743896 1067.1138916 C1499.68699711 1067.79174839 1499.68655525 1068.46960518 1499.68610001 1069.16800308 C1499.67857365 1091.21621044 1500.21526714 1113.02939032 1502.93743896 1134.9263916 C1503.01993896 1135.61064209 1503.10243896 1136.29489258 1503.18743896 1136.99987793 C1505.99565694 1160.27298437 1510.53322812 1183.12514518 1515.93743896 1205.9263916 C1516.23456787 1207.18242188 1516.53169678 1208.43845215 1516.83782959 1209.73254395 C1529.38548141 1261.65801279 1549.37777466 1311.41461184 1571.13014221 1360.06895447 C1587.99127143 1397.80352312 1604.43801891 1435.83783252 1617.93743896 1474.9263916 C1618.17637878 1475.61718811 1618.4153186 1476.30798462 1618.66149902 1477.01971436 C1640.87889085 1541.3458361 1654.14443994 1605.46973795 1654.18743896 1673.6763916 C1654.18845108 1675.14090759 1654.18845108 1675.14090759 1654.18948364 1676.63500977 C1654.15367411 1709.52756939 1650.53565694 1741.63470395 1639.93743896 1772.9263916 C1639.64449951 1773.80456543 1639.35156006 1774.68273926 1639.04974365 1775.58752441 C1632.8826924 1793.79162649 1624.51135197 1810.8603055 1615.90155029 1827.99951172 C1614.44617868 1830.90822797 1613.01495731 1833.82882503 1611.57806396 1836.7467041 C1601.44029082 1857.06289529 1589.44154483 1876.26636414 1573.93743896 1892.9263916 C1572.77050872 1894.2008899 1571.60385363 1895.47564018 1570.43743896 1896.75061035 C1561.93744925 1905.98798449 1553.34145573 1915.1263205 1543.78900146 1923.28967285 C1541.97815889 1924.89039656 1540.30335653 1926.56331464 1538.62493896 1928.3013916 C1535.01233149 1931.97082661 1531.06980603 1935.14181046 1527.05853271 1938.3638916 C1524.24612111 1940.64466149 1521.53788481 1943.02956477 1518.82977295 1945.43249512 C1509.30471519 1953.85953421 1499.19986478 1961.42592521 1488.93743896 1968.9263916 C1488.28356201 1969.40737305 1487.62968506 1969.88835449 1486.95599365 1970.38391113 C1477.54188763 1977.29826939 1467.82192723 1983.70598088 1457.93743896 1989.9263916 C1457.34447021 1990.30086426 1456.75150146 1990.67533691 1456.14056396 1991.06115723 C1394.37456471 2029.80657189 1323.17976141 2050.91272761 1251.02801514 2058.69921875 C1248.97425298 2058.9223912 1246.9217321 2059.15517858 1244.86907959 2059.38830566 C1219.89679981 2062.15272645 1194.83212648 2062.24416658 1169.73784637 2062.29475403 C1167.11060351 2062.30127211 1164.48342178 2062.31272093 1161.85620117 2062.32519531 C1131.83331927 2062.44859237 1102.03258216 2061.11968937 1072.37493896 2056.1138916 C1071.5922464 2055.98567017 1070.80955383 2055.85744873 1070.00314331 2055.7253418 C1056.9840063 2053.59051706 1044.10189268 2051.07075818 1031.31732178 2047.7911377 C1029.00994806 2047.20079403 1026.69919209 2046.62355393 1024.38568115 2046.05773926 C993.96436032 2038.5962777 964.33769569 2028.42649766 934.586689 2018.70179367 C848.37816962 1990.52597838 761.48986146 1969.77568546 662.58627319 1964.06713867 C660.8507261 1963.97491955 659.11534159 1963.8795755 657.38015747 1963.78076172 C639.96922 1962.79150153 622.55849848 1962.68113561 605.12493896 1962.6763916 C604.37794991 1962.67594975 603.63096085 1962.67550789 602.86133575 1962.67505264 C512.72323664 1962.64718584 431.54179464 1982.40127783 298.64886475 2047.4317627 C294.79397231 2049.55670881 290.9170423 2051.6400267 287.04119873 2053.72644043 C278.17323846 2058.50105787 269.36878221 2063.36567772 260.62493896 2068.3638916 C248.93715903 2075.03107109 237.00263318 2081.18954104 225.03314209 2087.33215332 C220.65399476 2089.58734512 216.29369031 2091.87736072 211.93743896 2094.1763916 C211.18140381 2094.57438965 210.42536865 2094.9723877 209.64642334 2095.38244629 C205.87748833 2097.36807136 202.11489076 2099.36483185 198.35931396 2101.37561035 C187.20734967 2107.32856196 175.89589584 2112.87064916 164.46185303 2118.2598877 C161.21440816 2119.79542792 157.97208265 2121.34113533 154.73127747 2122.89060974 C134.97530743 2132.33339462 115.13985473 2141.47180139 94.93743896 2149.9263916 C94.30767151 2150.19024658 93.67790405 2150.45410156 93.02905273 2150.72595215 C16.04108225 2182.93547825 -62.33645092 2207.62927046 -146.25006104 2211.0513916 C-147.26217651 2211.09341705 -148.27429199 2211.1354425 -149.31707764 2211.17874146 C-172.95425611 2212.11470577 -196.60184759 2212.11473678 -220.25391006 2212.11397552 C-222.2784437 2212.11391998 -224.30297741 2212.11434524 -226.32751083 2212.11527252 C-298.05564241 2212.14809522 -361.54476089 2205.70365733 -427.06256104 2173.9263916 C-427.80602783 2173.56980469 -428.54949463 2173.21321777 -429.31549072 2172.8458252 C-433.9420279 2170.62148676 -438.51489434 2168.30751721 -443.06256104 2165.9263916 C-444.18960449 2165.3400293 -444.18960449 2165.3400293 -445.3394165 2164.74182129 C-471.84324087 2150.85809751 -496.49786556 2133.34552418 -518.59381104 2113.17248535 C-520.24593569 2111.66936561 -521.9128699 2110.18237134 -523.59381104 2108.71154785 C-529.55506785 2103.4770492 -534.88276357 2097.93024776 -540.06256104 2091.9263916 C-540.51888916 2091.39884277 -540.97521729 2090.87129395 -541.44537354 2090.32775879 C-544.49780554 2086.79583379 -547.5321051 2083.24884473 -550.55718994 2079.69348145 C-551.99675068 2078.00364352 -553.44122334 2076.31813199 -554.88677979 2074.63342285 C-560.5106068 2068.05914611 -565.92924662 2061.35227682 -571.24615479 2054.5279541 C-574.15195945 2050.80078888 -577.10399918 2047.11173475 -580.06256104 2043.4263916 C-583.9888485 2038.53310693 -587.88366859 2033.61712128 -591.75006104 2028.6763916 C-596.44110257 2022.6925564 -601.19620825 2016.76924304 -606.06256104 2010.9263916 C-606.49616943 2010.40109863 -606.92977783 2009.87580566 -607.37652588 2009.33459473 C-623.34396096 1990.04084518 -640.65276787 1973.5015475 -663.06256104 1961.9263916 C-663.66519775 1961.60750977 -664.26783447 1961.28862793 -664.88873291 1960.96008301 C-704.28537775 1940.32911369 -751.39646752 1933.39592764 -794.51699829 1924.34646606 C-815.17017905 1920.01188003 -835.69375078 1915.45032408 -856.06256104 1909.9263916 C-856.87070251 1909.70829834 -857.67884399 1909.49020508 -858.51147461 1909.26550293 C-921.85725106 1892.14233123 -984.14437099 1868.79085761 -1037.23687744 1829.28088379 C-1039.36115399 1827.70486262 -1041.49864367 1826.14761793 -1043.63677979 1824.5904541 C-1058.66256726 1813.62329594 -1073.13954531 1802.26679684 -1087.06256104 1789.9263916 C-1087.99970947 1789.10268066 -1088.93685791 1788.27896973 -1089.90240479 1787.43029785 C-1096.95795616 1781.10358392 -1103.66523526 1774.42743871 -1110.37506104 1767.7388916 C-1110.85146027 1767.2651712 -1111.3278595 1766.79145081 -1111.81869507 1766.30337524 C-1117.45647491 1760.68965369 -1122.93923416 1755.01499456 -1128.06256104 1748.9263916 C-1128.57246582 1748.32319092 -1129.08237061 1747.71999023 -1129.60772705 1747.09851074 C-1143.87329691 1730.06980025 -1156.16858088 1712.2895169 -1167.06256104 1692.9263916 C-1167.5176001 1692.12620605 -1167.97263916 1691.32602051 -1168.44146729 1690.50158691 C-1191.25226109 1650.1060543 -1202.31284638 1604.13349839 -1202.25006104 1557.9263916 C-1202.24945679 1557.10458405 -1202.24885254 1556.28277649 -1202.24822998 1555.43606567 C-1202.22372199 1543.15263 -1201.87694621 1531.09300469 -1200.06256104 1518.9263916 C-1199.93897217 1518.0390332 -1199.8153833 1517.1516748 -1199.68804932 1516.23742676 C-1193.95066017 1475.58889397 -1181.08842178 1435.49143917 -1162.15924072 1399.06408691 C-1160.91678632 1396.64224124 -1159.71052384 1394.20418172 -1158.50787354 1391.7623291 C-1147.71716098 1369.86911206 -1135.62197413 1348.84238538 -1123.06256104 1327.9263916 C-1122.4441333 1326.89481934 -1121.82570557 1325.86324707 -1121.1885376 1324.80041504 C-1113.09340339 1311.32019966 -1104.73297043 1298.04349337 -1096.06256104 1284.9263916 C-1095.50069092 1284.07335449 -1094.9388208 1283.22031738 -1094.35992432 1282.34143066 C-1073.69869294 1250.99697302 -1052.2539345 1218.55646153 -1025.32427979 1192.1763916 C-1022.04471028 1188.91381469 -1019.05016439 1185.45496017 -1016.06256104 1181.9263916 C-1014.81345947 1180.47619629 -1014.81345947 1180.47619629 -1013.53912354 1178.9967041 C-1007.6107213 1172.09077983 -1001.90738286 1165.04064256 -996.44195557 1157.76086426 C-995.49371024 1156.49978189 -994.54132449 1155.24180555 -993.58551025 1153.9864502 C-966.42145264 1118.27563174 -943.13874844 1079.4764418 -922.06256104 1039.9263916 C-921.51100342 1038.8970752 -920.9594458 1037.86775879 -920.39117432 1036.80725098 C-908.31352248 1014.19870441 -897.70495872 991.12815932 -888.47857666 967.21960449 C-884.93710199 958.06394609 -881.21165696 948.99526683 -877.42495728 939.93850708 C-843.55611325 858.8995967 -812.38645035 777.30972627 -768.09832764 612.60067749 C-767.54083754 610.46966421 -766.98334245 608.33865225 -766.42584229 606.2076416 C-766.15113602 605.15752018 -765.87642975 604.10739876 -765.59339905 603.02545547 C-717.33898804 418.59870397 -717.33898804 418.59870397 -686.06256104 338.9263916 C-685.77574463 338.19462708 -685.48892822 337.46286255 -685.19342041 336.70892334 C-677.09720428 316.08365908 -668.57564419 295.75351871 -658.95635986 275.78436279 C-658.00230179 273.80112857 -657.05258896 271.81585359 -656.10357666 269.8302002 C-648.39382528 253.7085536 -640.67839181 237.58856594 -632.06256104 221.9263916 C-631.57223389 221.03339355 -631.08190674 220.14039551 -630.57672119 219.22033691 C-623.63701933 206.63799397 -616.34729394 194.34913661 -608.56402588 182.27209473 C-607.00025478 179.82905201 -605.46027955 177.37232901 -603.92584229 174.9107666 C-599.17872069 167.30159511 -594.42316724 159.77336932 -589.04693604 152.58654785 C-587.14269867 150.0338202 -585.29581736 147.44878124 -583.45831299 144.84802246 C-568.35824565 123.49905117 -551.72547736 103.07293005 -533.87896729 83.96154785 C-531.4962331 81.4071996 -529.18012853 78.80123724 -526.87506104 76.1763916 C-522.57138012 71.37613212 -518.04949926 66.80450256 -513.50006104 62.2388916 C-512.79147949 61.52571777 -512.08289795 60.81254395 -511.35284424 60.07775879 C-507.31058278 56.0472086 -503.16999546 52.19236417 -498.84649658 48.46520996 C-496.6092541 46.53537017 -494.43064038 44.54484592 -492.25006104 42.5513916 C-487.00059449 37.82048938 -481.56429292 33.35913413 -476.06256104 28.9263916 C-474.95263363 28.01299996 -473.84328286 27.09890725 -472.73443604 26.1842041 C-452.14920474 9.31492333 -429.73330275 -5.25983935 -406.30865479 -17.86022949 C-404.07207777 -19.06846729 -401.84843486 -20.29830833 -399.62506104 -21.53063965 C-386.52612138 -28.70457572 -372.92061583 -34.53081532 -359.06256104 -40.0736084 C-358.13072998 -40.44759766 -357.19889893 -40.82158691 -356.23883057 -41.20690918 C-264.20005133 -77.64908616 -151.51412933 -66.26133618 0 0 Z " fill="#EAA95F" transform="translate(1247.0625610351563,165.0736083984375)"/>
</svg>
